<svg xmlns="http://www.w3.org/2000/svg" viewBox="0 0 64 64" width="64" height="64">
  <!-- Background circle -->
  <circle cx="32" cy="32" r="30" fill="#1D3557" stroke="#E63946" stroke-width="2"/>
  
  <!-- Airplane -->
  <g transform="translate(32, 32) rotate(-30)">
    <path d="M-4,-18 L4,-18 L6,-8 L18,-2 L18,2 L6,0 L4,12 L8,16 L8,18 L0,14 L-8,18 L-8,16 L-4,12 L-6,0 L-18,2 L-18,-2 L-6,-8 Z" fill="#FFFFFF"/>
  </g>
  
  <!-- Tunisia flag dot (red) -->
  <circle cx="14" cy="48" r="5" fill="#E63946"/>
  <circle cx="15" cy="48" r="3" fill="#1D3557"/>
  <path d="M13,45 L15,48 L13,51" fill="none" stroke="#FFFFFF" stroke-width="0.8"/>
  
  <!-- Germany flag stripes -->
  <rect x="42" y="44" width="12" height="3" rx="1" fill="#000000"/>
  <rect x="42" y="47" width="12" height="3" rx="1" fill="#DD0000"/>
  <rect x="42" y="50" width="12" height="3" rx="1" fill="#FFBA08"/>
  
  <!-- Arrow path -->
  <path d="M20,48 Q32,38 42,46" fill="none" stroke="#FFBA08" stroke-width="1.5" stroke-dasharray="3,2"/>
</svg>
